<svg xmlns="http://www.w3.org/2000/svg" viewBox="0 0 504.32 504.32"><path d="M271.36 442.027c8.533-8.533 0-25.6-8.533-34.133-8.533-8.533-37.547 22.187-25.6 34.133 9.533 8.533 25.6 8.533 34.133 0zM396.8 320.853c8.533-25.6 42.667-34.133 25.6-51.3-17.067-17.067-51.2 0-59.733 0-18.773 0-25.6 34.133-42.667 25.6-17.067-8.533-34.133 8.533-17.067 17.067 17.067 8.533 34.133 17.067 42.667 25.6s42.667 8.633 51.2-16.967zm99.84-102.4c1.707 11.093 2.56 22.187 2.56 34.133 0 136.533-110.933 247.467-247.467 247.467-33.28-20.48-78.507-53.76-59.733-98.133 25.6-59.733 0-76.8-8.533-85.333-8.533-8.533-25.6-8.533-17.067-34.133S192 265.387 192 222.72s-68.267-34.133-59.733-8.533c8.533 25.6-8.533 59.733-42.667 85.333S46.934 256.853 64 239.787c11.947-11.947-26.453-17.92-58.027-16.213l5.12-30.72C37.547 85.333 135.68 5.12 251.734 5.12c20.48 0 40.96 2.56 60.587 7.68-5.12 23.893 11.947 34.133 11.947 42.667s0 51.2-17.067 51.2-59.733 25.6-42.667 51.2c17.067 25.6 25.6 59.733 42.667 51.2 17.067-8.533 30.72-60.587 42.667-59.733 29.867 1.707 29.867 44.373 46.933 52.907 11.947 5.973 62.293 0 93.867-13.653l5.972 29.865z" fill="#80d6fa"/><path d="M251.734 500.053c-30.72 0-59.733-7.68-59.733-7.68C84.48 465.92 4.267 368.64 4.267 252.587c0-10.24.853-18.773 1.707-29.013 31.573-1.707 69.12 4.267 58.027 16.213-17.067 17.067-8.533 85.333 25.6 59.733s51.2-59.733 42.667-85.333c-8.533-25.6 59.733-34.133 59.733 8.533s-17.067 34.133-25.6 59.733 8.533 25.6 17.067 34.133C192 325.12 217.6 342.187 192 401.92c-18.773 44.374 26.454 77.654 59.734 98.133zm170.666-230.4c17.067 17.067-17.067 25.6-25.6 51.2-8.533 25.6-42.667 25.6-51.2 17.067s-25.6-17.067-42.667-25.6c-17.067-8.533 0-25.6 17.067-17.067 17.067 8.533 23.893-25.6 42.667-25.6 8.533 0 42.667-17.066 59.733 0zM262.827 407.894c8.533 8.533 17.067 25.6 8.533 34.133-8.533 8.533-25.6 8.533-34.133 0-11.947-11.947 17.067-42.667 25.6-34.133zm227.84-220.161c-31.573 13.653-81.92 19.627-93.867 13.653-17.067-8.533-17.067-51.2-46.933-52.907-11.947-.853-25.6 51.2-42.667 59.733-17.067 8.533-25.6-25.6-42.667-51.2s25.6-51.2 42.667-51.2 17.067-42.667 17.067-51.2S307.2 35.84 313.174 11.947c15.36 4.267 33.28 11.093 33.28 11.093 69.973 29.013 123.733 90.454 144.213 164.693z" fill="#50dd8e"/><path d="M251.734 504.32c-.853 0-1.707 0-2.56-.853-24.747-15.36-82.773-52.907-61.44-103.253 22.187-52.053 4.267-69.12-5.12-78.507l-2.56-2.56c-1.707-1.707-4.267-3.413-6.827-4.267-7.68-5.12-18.773-11.093-11.093-34.133 3.413-11.093 8.533-16.213 12.8-20.48 6.827-6.827 11.947-12.8 11.947-37.547 0-13.653-7.68-19.627-14.507-23.04-11.947-5.12-28.16-2.56-34.133 3.413-3.413 2.56-4.267 5.973-2.56 9.387 9.387 27.307-8.533 63.147-44.373 90.453-17.068 12.8-27.308 4.267-30.721-.853-12.8-15.36-13.653-52.907 0-65.707l.853-.853c-1.707-3.413-23.893-8.533-52.053-7.68-.853 8.533-.853 16.213-.853 24.747 0 111.787 75.947 209.067 184.32 236.373 2.56.853 3.413 2.56 3.413 5.12-.853 2.56-2.56 3.413-5.12 3.413C78.507 469.333 0 369.493 0 253.44c0-10.24.853-19.627 1.707-29.013v-.853c0-.853.853-.853.853-1.707.853-.853.853-.853 1.707-.853h.853c16.213-.853 58.027 0 64 12.8.853 1.707 1.707 5.973-2.56 10.24-10.24 10.24-9.387 42.667.853 53.76 1.707 1.707 6.827 8.533 19.627-.853 32.427-24.747 49.493-57.173 40.96-80.213-2.56-6.827-.853-13.653 5.12-18.773 10.24-8.533 29.013-11.093 43.52-5.12 12.8 5.12 19.627 16.213 19.627 30.72 0 28.16-7.68 35.84-14.507 43.52-4.267 4.267-8.533 8.533-11.093 17.92-5.12 16.213 0 18.773 7.68 23.893 2.56 1.707 5.973 3.413 8.533 5.973.853.853 1.707.853 1.707 1.707 10.24 9.387 32.427 29.867 7.68 87.893-16.213 38.4 19.627 68.267 57.173 92.16 133.12-.853 242.347-109.227 242.347-243.2 0-11.093-.853-23.04-2.56-33.28 0-2.56 1.707-4.267 3.413-5.12 2.56 0 4.267 1.707 5.12 3.413 1.707 11.093 2.56 23.04 2.56 34.987-.853 138.239-113.493 250.879-252.586 250.879zm2.56-52.053c-7.68 0-15.36-2.56-20.48-7.68-8.533-8.533-2.56-23.893 7.68-33.28 3.413-3.413 7.68-6.827 11.093-7.68 6.827-2.56 11.093 0 12.8 1.707 10.24 10.24 19.627 29.013 8.533 40.107-4.266 4.266-11.946 6.826-19.626 6.826zm5.12-41.814c-1.707 0-5.973 1.707-11.093 6.827-4.267 4.267-6.827 8.533-8.533 12.8-1.707 4.267-.853 6.827.853 8.533 6.827 6.827 21.333 6.827 28.16 0 5.973-5.973-.853-20.48-8.533-28.16h-.854zm103.253-63.146c-8.533 0-16.213-2.56-20.48-5.973-7.68-7.68-24.747-16.213-41.813-24.747-4.267-1.707-6.827-5.12-8.533-7.68-1.707-3.413-1.707-6.827 0-10.24 4.267-7.68 17.067-12.8 29.013-6.827 5.12 2.56 9.387-.853 16.213-9.387 5.973-7.68 13.653-16.213 23.893-16.213 1.707 0 5.12-.853 9.387-2.56 14.507-4.267 39.253-11.093 53.76 3.413 4.267 4.267 5.973 8.533 5.973 12.8 0 7.68-5.973 12.8-12.8 19.627-6.827 5.973-14.507 13.653-17.067 23.04-4.267 11.947-13.653 20.48-27.307 23.893-2.559.854-6.826.854-10.239.854zm-52.053-50.347c-5.12 0-8.533 2.56-10.24 5.12-.853.853-.853 1.707 0 2.56.853 1.707 2.56 2.56 4.267 3.413 17.92 8.533 34.987 17.067 43.52 26.453 3.413 3.413 13.653 5.12 23.04 2.56 5.973-1.707 17.067-5.973 21.333-17.92 4.267-11.947 12.8-20.48 19.627-26.453 5.12-5.12 10.24-10.24 10.24-13.653 0-1.707-.853-4.267-3.413-5.973-11.093-11.093-31.573-5.12-45.227-1.707-5.12 1.707-9.387 2.56-11.947 2.56-6.827 0-11.947 5.973-17.92 12.8-6.827 7.68-14.507 17.92-26.453 11.947-1.707-.854-4.267-1.707-6.827-1.707zm-9.387-82.773c-11.947 0-19.627-15.36-27.307-31.573-4.267-7.68-8.533-16.213-12.8-23.04-5.973-8.533-5.973-18.773-.853-28.16 9.387-17.067 34.987-29.867 46.933-29.867 5.973 0 12.8-11.947 12.8-46.933 0-1.707-1.707-4.267-3.413-7.68-4.267-6.827-10.24-17.067-8.533-31.573-17.92-4.267-36.693-6.827-55.467-6.827C140.8 8.533 43.52 84.48 16.214 192.853c-.853 2.56-2.56 3.413-5.12 3.413-2.56-.853-3.413-2.56-3.413-5.12C35.84 78.507 135.68 0 251.734 0c20.48 0 41.813 2.56 61.44 7.68 2.56.853 3.413 2.56 3.413 5.12-3.413 13.653 2.56 22.187 6.827 29.867 2.56 4.267 5.12 7.68 5.12 11.947 0 36.693-6.827 55.467-21.333 55.467-10.24 0-32.427 11.093-40.107 25.6-3.413 6.827-3.413 12.8.853 19.627 5.12 7.68 9.387 16.213 13.653 23.893 10.24 20.48 16.213 29.013 23.893 25.6 7.68-3.413 15.36-19.627 21.333-31.573 7.68-16.213 14.507-28.16 23.04-28.16 20.48.853 29.013 18.773 35.84 33.28 4.267 8.533 7.68 17.067 13.653 19.627 9.387 5.12 54.613 0 87.04-11.947C465.92 115.2 413.014 56.32 344.747 28.16c-2.56-.853-3.413-3.413-2.56-5.973.853-2.56 3.413-3.413 5.973-2.56 72.533 29.867 127.147 92.16 147.627 167.253v2.56c0 .853-.853.853-.853 1.707l-.854.853c-31.573 13.653-83.627 20.48-97.28 13.653-8.533-4.267-12.8-13.653-17.067-23.893-5.973-13.653-12.8-27.307-28.16-28.16-3.413 0-11.093 15.36-15.36 23.893-7.68 15.36-15.36 30.72-25.6 35.84-4.266 0-6.826.854-9.386.854z" fill="#51565f"/></svg>