<svg width="12mm" height="12mm" viewBox="0 0 133.435 133.435" xmlns="http://www.w3.org/2000/svg"><path d="M71.797 116.953c2.258-2.258 0-6.773-2.257-9.031-2.258-2.258-9.935 5.87-6.774 9.031 2.523 2.258 6.774 2.258 9.031 0zm33.19-32.06c2.257-6.774 11.289-9.032 6.773-13.574-4.516-4.515-13.547 0-15.804 0-4.967 0-6.774 9.031-11.29 6.774-4.515-2.258-9.03 2.257-4.515 4.515 4.516 2.258 9.031 4.516 11.289 6.774 2.258 2.257 11.289 2.284 13.547-4.49zm26.416-27.094c.451 2.935.677 5.87.677 9.031 0 36.124-29.351 65.476-65.476 65.476-8.805-5.419-20.771-14.224-15.804-25.965 6.773-15.804 0-20.32-2.258-22.577-2.257-2.258-6.773-2.258-4.515-9.031 2.257-6.774 6.773-4.516 6.773-15.805s-18.062-9.031-15.804-2.258c2.257 6.774-2.258 15.805-11.29 22.578-9.03 6.773-11.288-11.289-6.773-15.804 3.161-3.161-6.999-4.742-15.353-4.29l1.355-8.128c7-28.448 32.964-49.671 63.67-49.671 5.418 0 10.837.677 16.03 2.032-1.355 6.321 3.16 9.03 3.16 11.289 0 2.258 0 13.546-4.515 13.546S65.476 34.996 69.991 41.77c4.516 6.773 6.774 15.804 11.29 13.547 4.515-2.258 8.127-16.03 11.288-15.805 7.903.452 7.903 11.74 12.418 13.999 3.16 1.58 16.482 0 24.836-3.613z" fill="#80d6fa"/><path d="M66.605 132.306c-8.128 0-15.805-2.032-15.805-2.032-28.448-7-49.671-32.738-49.671-63.444 0-2.709.226-4.967.452-7.676 8.353-.452 18.288 1.129 15.353 4.29-4.516 4.515-2.258 22.577 6.773 15.804 9.031-6.773 13.547-15.804 11.289-22.578-2.258-6.773 15.804-9.03 15.804 2.258 0 11.289-4.515 9.031-6.773 15.804-2.258 6.774 2.258 6.774 4.516 9.031 2.257 2.258 9.03 6.774 2.257 22.578-4.967 11.741 7 20.546 15.805 25.965zm45.155-60.96c4.516 4.515-4.516 6.773-6.773 13.546-2.258 6.774-11.29 6.774-13.547 4.516-2.258-2.258-6.773-4.516-11.289-6.773-4.516-2.258 0-6.774 4.516-4.516 4.515 2.258 6.321-6.773 11.289-6.773 2.257 0 11.289-4.516 15.804 0zm-42.22 36.576c2.257 2.258 4.515 6.773 2.257 9.031-2.257 2.258-6.773 2.258-9.03 0-3.162-3.161 4.515-11.289 6.773-9.031zm60.282-58.251c-8.353 3.612-21.674 5.193-24.835 3.612-4.516-2.257-4.516-13.546-12.418-13.998-3.161-.226-6.773 13.547-11.289 15.804-4.516 2.258-6.773-6.773-11.289-13.546-4.516-6.774 6.773-13.547 11.289-13.547s4.516-11.289 4.516-13.547c0-2.257-4.516-4.966-2.935-11.288 4.064 1.129 8.805 2.935 8.805 2.935 18.514 7.676 32.738 23.933 38.156 43.575z" fill="#50dd8e"/><path d="M66.605 133.435c-.226 0-.452 0-.678-.226-6.547-4.064-21.9-13.998-16.256-27.319 5.87-13.772 1.13-18.288-1.354-20.772l-.678-.677a4.918 4.918 0 00-1.806-1.129c-2.032-1.355-4.967-2.935-2.935-9.031.903-2.935 2.258-4.29 3.387-5.419 1.806-1.806 3.16-3.386 3.16-9.934 0-3.612-2.031-5.193-3.838-6.096-3.16-1.355-7.45-.677-9.03.903-.904.677-1.13 1.58-.678 2.484 2.484 7.225-2.258 16.707-11.74 23.932-4.516 3.387-7.226 1.129-8.129-.226-3.386-4.064-3.612-13.998 0-17.385l.226-.225c-.452-.903-6.322-2.258-13.772-2.032-.226 2.257-.226 4.29-.226 6.547 0 29.577 20.094 55.316 48.768 62.54.677.226.903.678.903 1.355-.226.678-.677.903-1.355.903C20.772 124.178 0 97.762 0 67.056c0-2.71.226-5.193.452-7.676v-.226c0-.226.225-.226.225-.452.226-.225.226-.225.452-.225h.226c4.29-.226 15.353 0 16.933 3.386.226.452.452 1.58-.677 2.71-2.71 2.709-2.484 11.289.225 14.224.452.451 1.807 2.257 5.193-.226 8.58-6.548 13.095-15.127 10.838-21.223-.678-1.806-.226-3.612 1.354-4.967 2.71-2.258 7.677-2.935 11.515-1.355 3.387 1.355 5.193 4.29 5.193 8.128 0 7.45-2.032 9.483-3.838 11.515-1.13 1.129-2.258 2.258-2.935 4.741-1.355 4.29 0 4.967 2.032 6.322.677.452 1.58.903 2.257 1.58.226.226.452.226.452.452 2.71 2.484 8.58 7.902 2.032 23.255-4.29 10.16 5.193 18.062 15.127 24.384 35.221-.226 64.121-28.9 64.121-64.347 0-2.935-.226-6.096-.677-8.805 0-.677.451-1.129.903-1.355.677 0 1.129.452 1.354.903.452 2.935.678 6.096.678 9.257-.226 36.576-30.029 66.379-66.83 66.379zm.677-13.773c-2.032 0-4.064-.677-5.419-2.032-2.257-2.257-.677-6.321 2.032-8.805.903-.903 2.032-1.806 2.935-2.032 1.807-.677 2.935 0 3.387.452 2.71 2.709 5.193 7.676 2.258 10.611-1.129 1.129-3.161 1.806-5.193 1.806zm1.355-11.063c-.452 0-1.58.452-2.935 1.806-1.13 1.13-1.807 2.258-2.258 3.387-.452 1.129-.226 1.806.226 2.258 1.806 1.806 5.644 1.806 7.45 0 1.58-1.58-.225-5.419-2.257-7.451zm27.319-16.707c-2.258 0-4.29-.678-5.419-1.58-2.032-2.033-6.548-4.29-11.063-6.548-1.129-.452-1.806-1.355-2.258-2.032-.451-.903-.451-1.807 0-2.71 1.13-2.032 4.516-3.386 7.677-1.806 1.354.677 2.483-.226 4.29-2.484 1.58-2.032 3.612-4.29 6.321-4.29.452 0 1.355-.225 2.484-.677 3.838-1.129 10.385-2.935 14.224.903 1.129 1.13 1.58 2.258 1.58 3.387 0 2.032-1.58 3.387-3.387 5.193-1.806 1.58-3.838 3.612-4.515 6.096-1.13 3.161-3.613 5.419-7.225 6.322-.677.226-1.806.226-2.71.226zM82.183 78.57c-1.354 0-2.257.677-2.709 1.354-.226.226-.226.452 0 .678.226.451.677.677 1.129.903 4.741 2.257 9.257 4.515 11.515 6.999.903.903 3.612 1.354 6.096.677 1.58-.452 4.515-1.58 5.644-4.741 1.129-3.161 3.387-5.419 5.193-7 1.355-1.354 2.71-2.709 2.71-3.612 0-.451-.226-1.129-.904-1.58-2.935-2.935-8.353-1.355-11.966-.452-1.355.452-2.484.678-3.161.678-1.806 0-3.161 1.58-4.741 3.386-1.807 2.032-3.839 4.742-7 3.161-.451-.226-1.128-.451-1.806-.451zM79.7 56.67c-3.161 0-5.193-4.065-7.225-8.354-1.13-2.032-2.258-4.29-3.387-6.096-1.58-2.258-1.58-4.967-.226-7.451 2.484-4.516 9.257-7.902 12.418-7.902 1.58 0 3.387-3.161 3.387-12.418 0-.452-.452-1.129-.903-2.032-1.13-1.806-2.71-4.516-2.258-8.354-4.741-1.129-9.708-1.806-14.676-1.806-29.577 0-55.315 20.094-62.54 48.768-.226.677-.677.903-1.355.903-.677-.226-.903-.678-.903-1.355C9.482 20.772 35.9 0 66.605 0c5.418 0 11.063.677 16.256 2.032.677.226.903.677.903 1.355-.903 3.612.677 5.87 1.806 7.902.677 1.129 1.355 2.032 1.355 3.161 0 9.708-1.807 14.676-5.645 14.676-2.71 0-8.58 2.935-10.611 6.773-.903 1.806-.903 3.387.225 5.193 1.355 2.032 2.484 4.29 3.613 6.322 2.709 5.418 4.29 7.676 6.321 6.773 2.032-.903 4.064-5.193 5.645-8.354 2.032-4.29 3.838-7.45 6.096-7.45 5.418.225 7.676 4.967 9.482 8.805 1.13 2.258 2.032 4.516 3.613 5.193 2.483 1.355 14.45 0 23.03-3.161-5.42-18.74-19.417-34.319-37.48-41.77-.677-.225-.903-.902-.677-1.58.226-.677.903-.903 1.58-.677 19.191 7.902 33.641 24.384 39.06 44.252v.678c0 .225-.226.225-.226.451l-.226.226c-8.353 3.612-22.126 5.419-25.738 3.612-2.258-1.129-3.387-3.612-4.516-6.321-1.58-3.613-3.387-7.225-7.45-7.451-.904 0-2.936 4.064-4.065 6.322-2.032 4.064-4.064 8.128-6.773 9.482-1.129 0-1.806.226-2.483.226z" fill="#51565f"/></svg>